<svg width="31" height="31" viewBox="0 0 31 31" fill="none" xmlns="http://www.w3.org/2000/svg">
<path d="M30.5605 28.8802L23.1282 21.4494C25.2824 18.8632 26.3566 15.546 26.1273 12.188C25.898 8.82993 24.383 5.68955 21.8973 3.42011C19.4116 1.15067 16.1467 -0.0730949 12.7817 0.00337995C9.41669 0.0798548 6.21072 1.45069 3.8307 3.8307C1.45069 6.21072 0.0798548 9.41669 0.00337995 12.7817C-0.0730949 16.1467 1.15067 19.4116 3.42011 21.8973C5.68955 24.383 8.82993 25.898 12.188 26.1273C15.546 26.3566 18.8632 25.2824 21.4494 23.1282L28.8802 30.5605C28.9905 30.6708 29.1215 30.7583 29.2656 30.818C29.4098 30.8777 29.5643 30.9085 29.7203 30.9085C29.8763 30.9085 30.0308 30.8777 30.175 30.818C30.3192 30.7583 30.4501 30.6708 30.5605 30.5605C30.6708 30.4501 30.7583 30.3192 30.818 30.175C30.8777 30.0308 30.9085 29.8763 30.9085 29.7203C30.9085 29.5643 30.8777 29.4098 30.818 29.2656C30.7583 29.1215 30.6708 28.9905 30.5605 28.8802ZM2.40781 13.0953C2.40781 10.9815 3.03462 8.9152 4.20898 7.15765C5.38334 5.4001 7.0525 4.03026 9.00538 3.22135C10.9583 2.41244 13.1072 2.20079 15.1803 2.61317C17.2535 3.02555 19.1578 4.04343 20.6525 5.53811C22.1472 7.03278 23.1651 8.93711 23.5775 11.0103C23.9898 13.0835 23.7782 15.2324 22.9693 17.1852C22.1604 19.1381 20.7905 20.8073 19.033 21.9816C17.2754 23.156 15.2091 23.7828 13.0953 23.7828C10.2618 23.7797 7.54519 22.6527 5.54158 20.649C3.53796 18.6454 2.41095 15.9288 2.40781 13.0953Z" fill="#2D3142"/>
</svg>
