<svg width="16" height="16" viewBox="0 0 16 16" fill="none" xmlns="http://www.w3.org/2000/svg">
<path d="M8 16C6.89333 16 5.85333 15.7899 4.88 15.3696C3.90667 14.9493 3.06 14.3795 2.34 13.66C1.62 12.9405 1.05013 12.0939 0.630401 11.12C0.210668 10.1461 0.000534346 9.10613 1.01266e-06 7.99999C-0.00053232 6.89386 0.209601 5.85386 0.630401 4.88C1.0512 3.90613 1.62107 3.05946 2.34 2.34C3.05893 1.62053 3.9056 1.05067 4.88 0.6304C5.8544 0.210133 6.8944 0 8 0C9.10559 0 10.1456 0.210133 11.12 0.6304C12.0944 1.05067 12.9411 1.62053 13.66 2.34C14.3789 3.05946 14.9491 3.90613 15.3704 4.88C15.7917 5.85386 16.0016 6.89386 16 7.99999V9.15999C16 9.94666 15.7301 10.6168 15.1904 11.1704C14.6507 11.724 13.9872 12.0005 13.2 12C12.7333 12 12.2933 11.9 11.88 11.7C11.4667 11.5 11.12 11.2133 10.84 10.84C10.4533 11.2267 10.0165 11.5168 9.52959 11.7104C9.04266 11.904 8.53279 12.0005 8 12C6.89333 12 5.95013 11.6099 5.1704 10.8296C4.39067 10.0493 4.00053 9.10613 4 7.99999C3.99947 6.89386 4.3896 5.95066 5.1704 5.1704C5.9512 4.39013 6.8944 4 8 4C9.10559 4 10.0491 4.39013 10.8304 5.1704C11.6117 5.95066 12.0016 6.89386 12 7.99999V9.15999C12 9.50666 12.1133 9.79999 12.34 10.04C12.5667 10.28 12.8533 10.4 13.2 10.4C13.5467 10.4 13.8333 10.28 14.06 10.04C14.2867 9.79999 14.4 9.50666 14.4 9.15999V7.99999C14.4 6.21333 13.78 4.7 12.54 3.46C11.3 2.22 9.78666 1.6 8 1.6C6.21333 1.6 4.7 2.22 3.46 3.46C2.22 4.7 1.6 6.21333 1.6 7.99999C1.6 9.78666 2.22 11.3 3.46 12.54C4.7 13.78 6.21333 14.4 8 14.4H11.2C11.4267 14.4 11.6168 14.4768 11.7704 14.6304C11.924 14.784 12.0005 14.9739 12 15.2C11.9995 15.4261 11.9227 15.6163 11.7696 15.7704C11.6165 15.9245 11.4267 16.0011 11.2 16H8ZM8 10.4C8.66666 10.4 9.23333 10.1667 9.69999 9.69999C10.1667 9.23333 10.4 8.66666 10.4 7.99999C10.4 7.33333 10.1667 6.76666 9.69999 6.3C9.23333 5.83333 8.66666 5.6 8 5.6C7.33333 5.6 6.76666 5.83333 6.3 6.3C5.83333 6.76666 5.6 7.33333 5.6 7.99999C5.6 8.66666 5.83333 9.23333 6.3 9.69999C6.76666 10.1667 7.33333 10.4 8 10.4Z" fill="#2D3142"/>
</svg>
